<svg xmlns="http://www.w3.org/2000/svg" xmlns:xlink="http://www.w3.org/1999/xlink" xmlns:lucid="lucid" width="1397.5" height="941"><g transform="translate(-199.5 240.5)" lucid:page-tab-id="0_0"><path d="M798.65-132a8 8 0 0 1 8-8h300.65a8 8 0 0 1 8 8V84a8 8 0 0 1-8 8H806.65a8 8 0 0 1-8-8z" fill="#fff"/><path d="M798.65-132a8 8 0 0 1 8-8h300.65a8 8 0 0 1 8 8V84a8 8 0 0 1-8 8H806.65a8 8 0 0 1-8-8zM798.65-100h316.65M842.65-100V92M993.5-100V92" stroke="#3a414a" fill="none"/><use xlink:href="#a" transform="matrix(1,0,0,1,808.6500000000001,-140) translate(107.05 23.6)"/><use xlink:href="#b" transform="matrix(1,0,0,1,803.6500000000001,-97.5) translate(5 17.1)"/><use xlink:href="#c" transform="matrix(1,0,0,1,847.6500000000001,-97.5) translate(21.574999999999996 17.1)"/><use xlink:href="#d" transform="matrix(1,0,0,1,998.5000000000001,-97.5) translate(46.525 17.1)"/><use xlink:href="#e" transform="matrix(1,0,0,1,847.6500000000001,-65.5) translate(48.025 17.1)"/><use xlink:href="#f" transform="matrix(1,0,0,1,998.5000000000001,-65.5) translate(10.099999999999994 17.1)"/><use xlink:href="#g" transform="matrix(1,0,0,1,847.6500000000001,-33.5) translate(38.525 17.1)"/><use xlink:href="#h" transform="matrix(1,0,0,1,998.5000000000001,-33.5) translate(5.099999999999994 17.1)"/><use xlink:href="#i" transform="matrix(1,0,0,1,847.6500000000001,-1.5) translate(49.074999999999996 17.1)"/><use xlink:href="#h" transform="matrix(1,0,0,1,998.5000000000001,-1.5) translate(5.099999999999994 17.1)"/><use xlink:href="#j" transform="matrix(1,0,0,1,847.6500000000001,30.5) translate(45.5 17.1)"/><use xlink:href="#k" transform="matrix(1,0,0,1,998.5000000000001,30.5) translate(10.099999999999994 17.1)"/><use xlink:href="#l" transform="matrix(1,0,0,1,847.6500000000001,62.5) translate(5.074999999999989 17.1)"/><use xlink:href="#m" transform="matrix(1,0,0,1,998.5000000000001,62.5) translate(10.549999999999997 17.1)"/><path d="M308.15-212a8 8 0 0 1 8-8H572a8 8 0 0 1 8 8v120a8 8 0 0 1-8 8H316.15a8 8 0 0 1-8-8z" fill="#fff"/><path d="M308.15-212a8 8 0 0 1 8-8H572a8 8 0 0 1 8 8v120a8 8 0 0 1-8 8H316.15a8 8 0 0 1-8-8zM308.15-180H580M352.15-180v96M469.1-180v96" stroke="#3a414a" fill="none"/><use xlink:href="#n" transform="matrix(1,0,0,1,318.1500000000001,-220) translate(89.5 23.6)"/><use xlink:href="#b" transform="matrix(1,0,0,1,313.1500000000001,-177.5) translate(5 17.1)"/><use xlink:href="#o" transform="matrix(1,0,0,1,357.1500000000001,-177.5) translate(5.024999999999999 17.1)"/><use xlink:href="#d" transform="matrix(1,0,0,1,474.10000000000014,-177.5) translate(41.025 17.1)"/><use xlink:href="#p" transform="matrix(1,0,0,1,313.1500000000001,-145.5) translate(5.524999999999999 17.1)"/><use xlink:href="#c" transform="matrix(1,0,0,1,357.1500000000001,-145.5) translate(4.574999999999996 17.1)"/><use xlink:href="#d" transform="matrix(1,0,0,1,474.10000000000014,-145.5) translate(41.025 17.1)"/><use xlink:href="#n" transform="matrix(1,0,0,1,357.1500000000001,-113.5) translate(17 17.1)"/><use xlink:href="#m" transform="matrix(1,0,0,1,474.10000000000014,-113.5) translate(5.049999999999997 17.1)"/><path d="M1191.85 48a8 8 0 0 1 8-8h368.65a8 8 0 0 1 8 8v120a8 8 0 0 1-8 8h-368.65a8 8 0 0 1-8-8z" fill="#fff"/><path d="M1191.85 48a8 8 0 0 1 8-8h368.65a8 8 0 0 1 8 8v120a8 8 0 0 1-8 8h-368.65a8 8 0 0 1-8-8zM1191.85 80h384.65M1234.8 80v96M1381.65 80v96" stroke="#3a414a" fill="none"/><use xlink:href="#q" transform="matrix(1,0,0,1,1201.85,40) translate(131.05 23.6)"/><use xlink:href="#b" transform="matrix(1,0,0,1,1196.85,82.5) translate(4.5 17.1)"/><use xlink:href="#r" transform="matrix(1,0,0,1,1239.8,82.5) translate(5.074999999999996 17.1)"/><use xlink:href="#d" transform="matrix(1,0,0,1,1386.6499999999999,82.5) translate(83.025 17.1)"/><use xlink:href="#p" transform="matrix(1,0,0,1,1196.85,114.5) translate(5.024999999999999 17.1)"/><use xlink:href="#s" transform="matrix(1,0,0,1,1239.8,114.5) translate(28.574999999999996 17.1)"/><use xlink:href="#d" transform="matrix(1,0,0,1,1386.6499999999999,114.5) translate(83.025 17.1)"/><use xlink:href="#t" transform="matrix(1,0,0,1,1239.8,146.5) translate(56.525 17.1)"/><use xlink:href="#u" transform="matrix(1,0,0,1,1386.6499999999999,146.5) translate(5.075000000000003 17.1)"/><path d="M720 456a8 8 0 0 1 8-8h261.65a8 8 0 0 1 8 8v216a8 8 0 0 1-8 8H728a8 8 0 0 1-8-8z" fill="#fff"/><path d="M720 456a8 8 0 0 1 8-8h261.65a8 8 0 0 1 8 8v216a8 8 0 0 1-8 8H728a8 8 0 0 1-8-8zM720 488h277.65M762.95 488v192M875.85 488v192" stroke="#3a414a" fill="none"/><use xlink:href="#v" transform="matrix(1,0,0,1,730,448) translate(90.025 23.6)"/><use xlink:href="#b" transform="matrix(1,0,0,1,725,490.5) translate(4.5 17.1)"/><use xlink:href="#w" transform="matrix(1,0,0,1,767.95,490.5) translate(5.049999999999997 17.1)"/><use xlink:href="#d" transform="matrix(1,0,0,1,880.85,490.5) translate(46.525 17.1)"/><use xlink:href="#p" transform="matrix(1,0,0,1,725,522.5) translate(5.024999999999999 17.1)"/><use xlink:href="#x" transform="matrix(1,0,0,1,767.95,522.5) translate(17.074999999999996 17.1)"/><use xlink:href="#d" transform="matrix(1,0,0,1,880.85,522.5) translate(46.525 17.1)"/><use xlink:href="#y" transform="matrix(1,0,0,1,767.95,554.5) translate(21.525 17.1)"/><use xlink:href="#z" transform="matrix(1,0,0,1,880.85,554.5) translate(25.074999999999996 17.1)"/><use xlink:href="#A" transform="matrix(1,0,0,1,767.95,586.5) translate(21.525 17.1)"/><use xlink:href="#B" transform="matrix(1,0,0,1,880.85,586.5) translate(10.099999999999994 17.1)"/><use xlink:href="#C" transform="matrix(1,0,0,1,767.95,618.5) translate(12.049999999999997 17.1)"/><use xlink:href="#D" transform="matrix(1,0,0,1,880.85,618.5) translate(21.549999999999997 17.1)"/><use xlink:href="#E" transform="matrix(1,0,0,1,767.95,650.5) translate(12.5 17.1)"/><use xlink:href="#h" transform="matrix(1,0,0,1,880.85,650.5) translate(5.099999999999994 17.1)"/><path d="M760 260a8 8 0 0 1 8-8h282.65a8 8 0 0 1 8 8v88a8 8 0 0 1-8 8H768a8 8 0 0 1-8-8z" fill="#fff"/><path d="M760 260a8 8 0 0 1 8-8h282.65a8 8 0 0 1 8 8v88a8 8 0 0 1-8 8H768a8 8 0 0 1-8-8zM760 292h298.65M804 292v64M936.85 292v64" stroke="#3a414a" fill="none"/><use xlink:href="#F" transform="matrix(1,0,0,1,770,252) translate(90.55 23.6)"/><use xlink:href="#b" transform="matrix(1,0,0,1,765,294.5) translate(5 17.1)"/><use xlink:href="#G" transform="matrix(1,0,0,1,809,294.5) translate(5.074999999999996 17.1)"/><use xlink:href="#d" transform="matrix(1,0,0,1,941.85,294.5) translate(46.525 17.1)"/><use xlink:href="#H" transform="matrix(1,0,0,1,809,326.5) translate(44.5 17.1)"/><use xlink:href="#I" transform="matrix(1,0,0,1,941.85,326.5) translate(5.099999999999994 17.1)"/><path d="M220 64a8 8 0 0 1 8-8h296.25a8 8 0 0 1 8 8v344a8 8 0 0 1-8 8H228a8 8 0 0 1-8-8z" fill="#fff"/><path d="M220 64a8 8 0 0 1 8-8h296.25a8 8 0 0 1 8 8v344a8 8 0 0 1-8 8H228a8 8 0 0 1-8-8zM220 96h312.25M262.95 96v320M410.45 96v320" stroke="#3a414a" fill="none"/><use xlink:href="#J" transform="matrix(1,0,0,1,230,56) translate(119.55 23.6)"/><use xlink:href="#b" transform="matrix(1,0,0,1,225,98.5) translate(4.5 17.1)"/><use xlink:href="#x" transform="matrix(1,0,0,1,267.95,98.5) translate(34.574999999999996 17.1)"/><use xlink:href="#d" transform="matrix(1,0,0,1,415.45,98.5) translate(46.525 17.1)"/><use xlink:href="#p" transform="matrix(1,0,0,1,225,130.5) translate(5.024999999999999 17.1)"/><use xlink:href="#c" transform="matrix(1,0,0,1,267.95,130.5) translate(20.074999999999996 17.1)"/><use xlink:href="#d" transform="matrix(1,0,0,1,415.45,130.5) translate(46.525 17.1)"/><use xlink:href="#p" transform="matrix(1,0,0,1,225,162.5) translate(5.024999999999999 17.1)"/><use xlink:href="#s" transform="matrix(1,0,0,1,267.95,162.5) translate(29.074999999999996 17.1)"/><use xlink:href="#d" transform="matrix(1,0,0,1,415.45,162.5) translate(46.525 17.1)"/><use xlink:href="#p" transform="matrix(1,0,0,1,225,194.5) translate(5.024999999999999 17.1)"/><use xlink:href="#G" transform="matrix(1,0,0,1,267.95,194.5) translate(12.574999999999996 17.1)"/><use xlink:href="#d" transform="matrix(1,0,0,1,415.45,194.5) translate(46.525 17.1)"/><use xlink:href="#C" transform="matrix(1,0,0,1,267.95,226.5) translate(29.549999999999997 17.1)"/><use xlink:href="#D" transform="matrix(1,0,0,1,415.45,226.5) translate(21.549999999999997 17.1)"/><use xlink:href="#K" transform="matrix(1,0,0,1,267.95,258.5) translate(9.549999999999997 17.1)"/><use xlink:href="#D" transform="matrix(1,0,0,1,415.45,258.5) translate(21.549999999999997 17.1)"/><use xlink:href="#L" transform="matrix(1,0,0,1,267.95,290.5) translate(7.074999999999996 17.1)"/><use xlink:href="#h" transform="matrix(1,0,0,1,415.45,290.5) translate(5.099999999999994 17.1)"/><use xlink:href="#M" transform="matrix(1,0,0,1,267.95,322.5) translate(5.25 17.1)"/><use xlink:href="#h" transform="matrix(1,0,0,1,415.45,322.5) translate(5.099999999999994 17.1)"/><use xlink:href="#N" transform="matrix(1,0,0,1,267.95,354.5) translate(16.574999999999996 17.1)"/><use xlink:href="#m" transform="matrix(1,0,0,1,415.45,354.5) translate(10.549999999999997 17.1)"/><use xlink:href="#O" transform="matrix(1,0,0,1,267.95,386.5) translate(12.549999999999997 17.1)"/><use xlink:href="#m" transform="matrix(1,0,0,1,415.45,386.5) translate(10.549999999999997 17.1)"/><path d="M1191.85 256a8 8 0 0 1 8-8h293.65a8 8 0 0 1 8 8v184a8 8 0 0 1-8 8h-293.65a8 8 0 0 1-8-8z" fill="#fff"/><path d="M1191.85 256a8 8 0 0 1 8-8h293.65a8 8 0 0 1 8 8v184a8 8 0 0 1-8 8h-293.65a8 8 0 0 1-8-8zM1191.85 288h309.65M1235.85 288v160M1379.7 288v160" stroke="#3a414a" fill="none"/><use xlink:href="#P" transform="matrix(1,0,0,1,1201.85,248) translate(90.55 23.6)"/><use xlink:href="#b" transform="matrix(1,0,0,1,1196.85,290.5) translate(5 17.1)"/><use xlink:href="#Q" transform="matrix(1,0,0,1,1240.85,290.5) translate(5.074999999999996 17.1)"/><use xlink:href="#d" transform="matrix(1,0,0,1,1384.6999999999998,290.5) translate(46.525 17.1)"/><use xlink:href="#H" transform="matrix(1,0,0,1,1240.85,322.5) translate(50 17.1)"/><use xlink:href="#I" transform="matrix(1,0,0,1,1384.6999999999998,322.5) translate(5.099999999999994 17.1)"/><use xlink:href="#R" transform="matrix(1,0,0,1,1240.85,354.5) translate(42.55 17.1)"/><use xlink:href="#I" transform="matrix(1,0,0,1,1384.6999999999998,354.5) translate(5.099999999999994 17.1)"/><use xlink:href="#S" transform="matrix(1,0,0,1,1240.85,386.5) translate(23.574999999999996 17.1)"/><use xlink:href="#m" transform="matrix(1,0,0,1,1384.6999999999998,386.5) translate(10.549999999999997 17.1)"/><use xlink:href="#T" transform="matrix(1,0,0,1,1240.85,418.5) translate(13.024999999999999 17.1)"/><use xlink:href="#z" transform="matrix(1,0,0,1,1384.6999999999998,418.5) translate(25.074999999999996 17.1)"/><path d="M800 128a8 8 0 0 1 8-8h209.75a8 8 0 0 1 8 8v88a8 8 0 0 1-8 8H808a8 8 0 0 1-8-8z" fill="#fff"/><path d="M800 128a8 8 0 0 1 8-8h209.75a8 8 0 0 1 8 8v88a8 8 0 0 1-8 8H808a8 8 0 0 1-8-8zM800 160h225.75M842.95 160v64M986.8 160v64" stroke="#3a414a" fill="none"/><use xlink:href="#U" transform="matrix(1,0,0,1,810,120) translate(70.55 23.6)"/><use xlink:href="#b" transform="matrix(1,0,0,1,805,162.5) translate(4.5 17.1)"/><use xlink:href="#s" transform="matrix(1,0,0,1,847.95,162.5) translate(27.074999999999996 17.1)"/><use xlink:href="#d" transform="matrix(1,0,0,1,991.8,162.5) translate(5.025 17.1)"/><use xlink:href="#p" transform="matrix(1,0,0,1,805,194.5) translate(5.024999999999999 17.1)"/><use xlink:href="#Q" transform="matrix(1,0,0,1,847.95,194.5) translate(5.074999999999996 17.1)"/><use xlink:href="#d" transform="matrix(1,0,0,1,991.8,194.5) translate(5.025 17.1)"/><path d="M572.25 143.7h81.2a12 12 0 0 0 12-12V-72.2a12 12 0 0 1 12-12h100.7" stroke="#3a414a" fill="none"/><path d="M532.97 133.7l20 10-20 10" stroke="#3a414a" fill="#fff" fill-opacity="0"/><path d="M532.97 143.7h20M572.97 143.7c0 5.53-4.47 10-10 10-5.52 0-10-4.47-10-10 0-5.52 4.48-10 10-10 5.53 0 10 4.48 10 10M778.15-94.2v20M798.15-84.2h-20" stroke="#3a414a" fill="#fff"/><path d="M572.25 175.8H779.5" stroke="#3a414a" fill="none"/><path d="M532.97 165.8l20 10-20 10" stroke="#3a414a" fill="#fff" fill-opacity="0"/><path d="M532.97 175.8h20M572.97 175.8c0 5.53-4.47 10-10 10-5.52 0-10-4.47-10-10 0-5.52 4.48-10 10-10 5.53 0 10 4.48 10 10M779.5 165.8v20M799.5 175.8h-20" stroke="#3a414a" fill="#fff"/><path d="M572.25 207.9h61.88a12 12 0 0 1 12 12V296a12 12 0 0 0 12 12h81.37" stroke="#3a414a" fill="none"/><path d="M532.97 197.9l20 10-20 10" stroke="#3a414a" fill="#fff" fill-opacity="0"/><path d="M532.97 207.9h20M572.97 207.9c0 5.53-4.47 10-10 10-5.52 0-10-4.47-10-10 0-5.5 4.48-10 10-10 5.53 0 10 4.5 10 10M739.5 298v20M759.5 308h-20" stroke="#3a414a" fill="#fff"/><path d="M1065.75 208.16h31.05a12 12 0 0 1 12 12v71.7a12 12 0 0 0 12 12h50.55" stroke="#3a414a" fill="none"/><path d="M1026.47 198.16l20 10-20 10" stroke="#3a414a" fill="#fff" fill-opacity="0"/><path d="M1026.47 208.16h20M1066.47 208.16c0 5.52-4.47 10-10 10-5.52 0-10-4.48-10-10s4.48-10 10-10c5.53 0 10 4.48 10 10M1171.35 293.86v20M1191.35 303.86h-20" stroke="#3a414a" fill="#fff"/><path d="M620-131.93h57.33a12 12 0 0 1 12 12v6.6a12 12 0 0 0 12 12h76.82" stroke="#3a414a" fill="none"/><path d="M580.72-141.93l20 10-20 10" stroke="#3a414a" fill="#fff" fill-opacity="0"/><path d="M580.72-131.93h20M620.72-131.93c0 5.53-4.47 10-10 10-5.52 0-10-4.47-10-10 0-5.52 4.48-10 10-10 5.53 0 10 4.48 10 10M778.15-111.33v20M798.15-101.33h-20" stroke="#3a414a" fill="#fff"/><path d="M552.75 111.6h61.38a12 12 0 0 1 12 12v400.3a12 12 0 0 0 12 12h61.37" stroke="#3a414a" fill="none"/><path d="M552.75 121.6v-20M532.75 111.6h20" stroke="#3a414a" fill="#fff"/><path d="M719.28 545.9l-20-10 20-10" stroke="#3a414a" fill="#fff" fill-opacity="0"/><path d="M719.28 535.9h-20M699.28 525.9v20" stroke="#3a414a" fill="#fff"/><path d="M1046.25 176.02h50.55a12 12 0 0 0 12-12v-23.97a12 12 0 0 1 12-12h31.05" stroke="#3a414a" fill="none"/><path d="M1046.25 186.02v-20M1026.25 176.02h20M1181.35 118.05v20M1191.35 128.05h-20M1171.35 128.05c0 5.52-4.48 10-10 10s-10-4.48-10-10 4.48-10 10-10 10 4.48 10 10" stroke="#3a414a" fill="#fff"/><defs><path fill="#3a414a" d="M96-169c-40 0-48 33-48 73s9 75 48 75c24 0 41-14 43-38l32 2c-6 37-31 61-74 61-59 0-76-41-82-99-10-93 101-131 147-64 4 7 5 14 7 22l-32 3c-4-21-16-35-41-35" id="V"/><path fill="#3a414a" d="M84 4C-5 8 30-112 23-190h32v120c0 31 7 50 39 49 72-2 45-101 50-169h31l1 190h-30c-1-10 1-25-2-33-11 22-28 36-60 37" id="W"/><path fill="#3a414a" d="M135-143c-3-34-86-38-87 0 15 53 115 12 119 90S17 21 10-45l28-5c4 36 97 45 98 0-10-56-113-15-118-90-4-57 82-63 122-42 12 7 21 19 24 35" id="X"/><path fill="#3a414a" d="M59-47c-2 24 18 29 38 22v24C64 9 27 4 27-40v-127H5v-23h24l9-43h21v43h35v23H59v120" id="Y"/><path fill="#3a414a" d="M100-194c62-1 85 37 85 99 1 63-27 99-86 99S16-35 15-95c0-66 28-99 85-99zM99-20c44 1 53-31 53-75 0-43-8-75-51-75s-53 32-53 75 10 74 51 75" id="Z"/><path fill="#3a414a" d="M210-169c-67 3-38 105-44 169h-31v-121c0-29-5-50-35-48C34-165 62-65 56 0H25l-1-190h30c1 10-1 24 2 32 10-44 99-50 107 0 11-21 27-35 58-36 85-2 47 119 55 194h-31v-121c0-29-5-49-35-48" id="aa"/><path fill="#3a414a" d="M100-194c63 0 86 42 84 106H49c0 40 14 67 53 68 26 1 43-12 49-29l28 8c-11 28-37 45-77 45C44 4 14-33 15-96c1-61 26-98 85-98zm52 81c6-60-76-77-97-28-3 7-6 17-6 28h103" id="ab"/><path fill="#3a414a" d="M114-163C36-179 61-72 57 0H25l-1-190h30c1 12-1 29 2 39 6-27 23-49 58-41v29" id="ac"/><g id="a"><use transform="matrix(0.05,0,0,0.05,0,0)" xlink:href="#V"/><use transform="matrix(0.05,0,0,0.05,9,0)" xlink:href="#W"/><use transform="matrix(0.05,0,0,0.05,19,0)" xlink:href="#X"/><use transform="matrix(0.05,0,0,0.05,28,0)" xlink:href="#Y"/><use transform="matrix(0.05,0,0,0.05,33,0)" xlink:href="#Z"/><use transform="matrix(0.05,0,0,0.05,43,0)" xlink:href="#aa"/><use transform="matrix(0.05,0,0,0.05,57.95,0)" xlink:href="#ab"/><use transform="matrix(0.05,0,0,0.05,67.95,0)" xlink:href="#ac"/><use transform="matrix(0.05,0,0,0.05,73.9,0)" xlink:href="#X"/></g><path fill="#3a414a" d="M30-248c87 1 191-15 191 75 0 78-77 80-158 76V0H30v-248zm33 125c57 0 124 11 124-50 0-59-68-47-124-48v98" id="ad"/><path fill="#3a414a" d="M194 0L95-120 63-95V0H30v-248h33v124l119-124h40L117-140 236 0h-42" id="ae"/><g id="b"><use transform="matrix(0.05,0,0,0.05,0,0)" xlink:href="#ad"/><use transform="matrix(0.05,0,0,0.05,12,0)" xlink:href="#ae"/></g><path fill="#3a414a" d="M-5 72V49h209v23H-5" id="af"/><path fill="#3a414a" d="M24-231v-30h32v30H24zM24 0v-190h32V0H24" id="ag"/><path fill="#3a414a" d="M85-194c31 0 48 13 60 33l-1-100h32l1 261h-30c-2-10 0-23-3-31C134-8 116 4 85 4 32 4 16-35 15-94c0-66 23-100 70-100zm9 24c-40 0-46 34-46 75 0 40 6 74 45 74 42 0 51-32 51-76 0-42-9-74-50-73" id="ah"/><g id="c"><use transform="matrix(0.05,0,0,0.05,0,0)" xlink:href="#V"/><use transform="matrix(0.05,0,0,0.05,9,0)" xlink:href="#W"/><use transform="matrix(0.05,0,0,0.05,19,0)" xlink:href="#X"/><use transform="matrix(0.05,0,0,0.05,28,0)" xlink:href="#Y"/><use transform="matrix(0.05,0,0,0.05,33,0)" xlink:href="#Z"/><use transform="matrix(0.05,0,0,0.05,43,0)" xlink:href="#aa"/><use transform="matrix(0.05,0,0,0.05,57.95,0)" xlink:href="#ab"/><use transform="matrix(0.05,0,0,0.05,67.95,0)" xlink:href="#ac"/><use transform="matrix(0.05,0,0,0.05,73.9,0)" xlink:href="#af"/><use transform="matrix(0.05,0,0,0.05,83.9,0)" xlink:href="#ag"/><use transform="matrix(0.05,0,0,0.05,87.85000000000001,0)" xlink:href="#ah"/></g><path fill="#3a414a" d="M117-194c89-4 53 116 60 194h-32v-121c0-31-8-49-39-48C34-167 62-67 57 0H25l-1-190h30c1 10-1 24 2 32 11-22 29-35 61-36" id="ai"/><g id="d"><use transform="matrix(0.05,0,0,0.05,0,0)" xlink:href="#ag"/><use transform="matrix(0.05,0,0,0.05,3.95,0)" xlink:href="#ai"/><use transform="matrix(0.05,0,0,0.05,13.949999999999998,0)" xlink:href="#Y"/></g><path fill="#3a414a" d="M141-36C126-15 110 5 73 4 37 3 15-17 15-53c-1-64 63-63 125-63 3-35-9-54-41-54-24 1-41 7-42 31l-33-3c5-37 33-52 76-52 45 0 72 20 72 64v82c-1 20 7 32 28 27v20c-31 9-61-2-59-35zM48-53c0 20 12 33 32 33 41-3 63-29 60-74-43 2-92-5-92 41" id="aj"/><g id="e"><use transform="matrix(0.05,0,0,0.05,0,0)" xlink:href="#ai"/><use transform="matrix(0.05,0,0,0.05,10,0)" xlink:href="#aj"/><use transform="matrix(0.05,0,0,0.05,20,0)" xlink:href="#aa"/><use transform="matrix(0.05,0,0,0.05,34.95,0)" xlink:href="#ab"/></g><path fill="#3a414a" d="M108 0H70L1-190h34L89-25l56-165h34" id="ak"/><path fill="#3a414a" d="M106-169C34-169 62-67 57 0H25v-261h32l-1 103c12-21 28-36 61-36 89 0 53 116 60 194h-32v-121c2-32-8-49-39-48" id="al"/><path fill="#3a414a" d="M87 75C49 33 22-17 22-94c0-76 28-126 65-167h31c-38 41-64 92-64 168S80 34 118 75H87" id="am"/><path fill="#3a414a" d="M54-142c48-35 137-8 131 61C196 18 31 33 14-55l32-4c7 23 22 37 52 37 35-1 51-22 54-58 4-55-73-65-99-34H22l8-134h141v27H59" id="an"/><path fill="#3a414a" d="M101-251c68 0 85 55 85 127S166 4 100 4C33 4 14-52 14-124c0-73 17-127 87-127zm-1 229c47 0 54-49 54-102s-4-102-53-102c-51 0-55 48-55 102 0 53 5 102 54 102" id="ao"/><path fill="#3a414a" d="M33-261c38 41 65 92 65 168S71 34 33 75H2C39 34 66-17 66-93S39-220 2-261h31" id="ap"/><g id="f"><use transform="matrix(0.05,0,0,0.05,0,0)" xlink:href="#ak"/><use transform="matrix(0.05,0,0,0.05,9,0)" xlink:href="#aj"/><use transform="matrix(0.05,0,0,0.05,19,0)" xlink:href="#ac"/><use transform="matrix(0.05,0,0,0.05,24.95,0)" xlink:href="#V"/><use transform="matrix(0.05,0,0,0.05,33.95,0)" xlink:href="#al"/><use transform="matrix(0.05,0,0,0.05,43.95,0)" xlink:href="#aj"/><use transform="matrix(0.05,0,0,0.05,53.95,0)" xlink:href="#ac"/><use transform="matrix(0.05,0,0,0.05,59.900000000000006,0)" xlink:href="#am"/><use transform="matrix(0.05,0,0,0.05,65.85000000000001,0)" xlink:href="#an"/><use transform="matrix(0.05,0,0,0.05,75.85000000000001,0)" xlink:href="#ao"/><use transform="matrix(0.05,0,0,0.05,85.85000000000001,0)" xlink:href="#ap"/></g><g id="g"><use transform="matrix(0.05,0,0,0.05,0,0)" xlink:href="#aj"/><use transform="matrix(0.05,0,0,0.05,10,0)" xlink:href="#ah"/><use transform="matrix(0.05,0,0,0.05,20,0)" xlink:href="#ah"/><use transform="matrix(0.05,0,0,0.05,30,0)" xlink:href="#ac"/><use transform="matrix(0.05,0,0,0.05,35.95,0)" xlink:href="#ab"/><use transform="matrix(0.05,0,0,0.05,45.95,0)" xlink:href="#X"/><use transform="matrix(0.05,0,0,0.05,54.95,0)" xlink:href="#X"/></g><path fill="#3a414a" d="M101-251c82-7 93 87 43 132L82-64C71-53 59-42 53-27h129V0H18c2-99 128-94 128-182 0-28-16-43-45-43s-46 15-49 41l-32-3c6-41 34-60 81-64" id="aq"/><g id="h"><use transform="matrix(0.05,0,0,0.05,0,0)" xlink:href="#ak"/><use transform="matrix(0.05,0,0,0.05,9,0)" xlink:href="#aj"/><use transform="matrix(0.05,0,0,0.05,19,0)" xlink:href="#ac"/><use transform="matrix(0.05,0,0,0.05,24.95,0)" xlink:href="#V"/><use transform="matrix(0.05,0,0,0.05,33.95,0)" xlink:href="#al"/><use transform="matrix(0.05,0,0,0.05,43.95,0)" xlink:href="#aj"/><use transform="matrix(0.05,0,0,0.05,53.95,0)" xlink:href="#ac"/><use transform="matrix(0.05,0,0,0.05,59.900000000000006,0)" xlink:href="#am"/><use transform="matrix(0.05,0,0,0.05,65.85000000000001,0)" xlink:href="#aq"/><use transform="matrix(0.05,0,0,0.05,75.85000000000001,0)" xlink:href="#an"/><use transform="matrix(0.05,0,0,0.05,85.85000000000001,0)" xlink:href="#an"/><use transform="matrix(0.05,0,0,0.05,95.85000000000001,0)" xlink:href="#ap"/></g><path fill="#3a414a" d="M24 0v-261h32V0H24" id="ar"/><g id="i"><use transform="matrix(0.05,0,0,0.05,0,0)" xlink:href="#ab"/><use transform="matrix(0.05,0,0,0.05,10,0)" xlink:href="#aa"/><use transform="matrix(0.05,0,0,0.05,24.950000000000003,0)" xlink:href="#aj"/><use transform="matrix(0.05,0,0,0.05,34.95,0)" xlink:href="#ag"/><use transform="matrix(0.05,0,0,0.05,38.900000000000006,0)" xlink:href="#ar"/></g><path fill="#3a414a" d="M115-194c55 1 70 41 70 98S169 2 115 4C84 4 66-9 55-30l1 105H24l-1-265h31l2 30c10-21 28-34 59-34zm-8 174c40 0 45-34 45-75s-6-73-45-74c-42 0-51 32-51 76 0 43 10 73 51 73" id="as"/><g id="j"><use transform="matrix(0.05,0,0,0.05,0,0)" xlink:href="#as"/><use transform="matrix(0.05,0,0,0.05,10,0)" xlink:href="#al"/><use transform="matrix(0.05,0,0,0.05,20,0)" xlink:href="#Z"/><use transform="matrix(0.05,0,0,0.05,30,0)" xlink:href="#ai"/><use transform="matrix(0.05,0,0,0.05,40,0)" xlink:href="#ab"/></g><path fill="#3a414a" d="M126-127c33 6 58 20 58 59 0 88-139 92-164 29-3-8-5-16-6-25l32-3c6 27 21 44 54 44 32 0 52-15 52-46 0-38-36-46-79-43v-28c39 1 72-4 72-42 0-27-17-43-46-43-28 0-47 15-49 41l-32-3c6-42 35-63 81-64 48-1 79 21 79 65 0 36-21 52-52 59" id="at"/><g id="k"><use transform="matrix(0.05,0,0,0.05,0,0)" xlink:href="#ak"/><use transform="matrix(0.05,0,0,0.05,9,0)" xlink:href="#aj"/><use transform="matrix(0.05,0,0,0.05,19,0)" xlink:href="#ac"/><use transform="matrix(0.05,0,0,0.05,24.95,0)" xlink:href="#V"/><use transform="matrix(0.05,0,0,0.05,33.95,0)" xlink:href="#al"/><use transform="matrix(0.05,0,0,0.05,43.95,0)" xlink:href="#aj"/><use transform="matrix(0.05,0,0,0.05,53.95,0)" xlink:href="#ac"/><use transform="matrix(0.05,0,0,0.05,59.900000000000006,0)" xlink:href="#am"/><use transform="matrix(0.05,0,0,0.05,65.85000000000001,0)" xlink:href="#at"/><use transform="matrix(0.05,0,0,0.05,75.85000000000001,0)" xlink:href="#ao"/><use transform="matrix(0.05,0,0,0.05,85.85000000000001,0)" xlink:href="#ap"/></g><path fill="#3a414a" d="M179-190L93 31C79 59 56 82 12 73V49c39 6 53-20 64-50L1-190h34L92-34l54-156h33" id="au"/><g id="l"><use transform="matrix(0.05,0,0,0.05,0,0)" xlink:href="#as"/><use transform="matrix(0.05,0,0,0.05,10,0)" xlink:href="#aj"/><use transform="matrix(0.05,0,0,0.05,20,0)" xlink:href="#au"/><use transform="matrix(0.05,0,0,0.05,29,0)" xlink:href="#aa"/><use transform="matrix(0.05,0,0,0.05,43.95,0)" xlink:href="#ab"/><use transform="matrix(0.05,0,0,0.05,53.95,0)" xlink:href="#ai"/><use transform="matrix(0.05,0,0,0.05,63.95,0)" xlink:href="#Y"/><use transform="matrix(0.05,0,0,0.05,68.95,0)" xlink:href="#af"/><use transform="matrix(0.05,0,0,0.05,78.95,0)" xlink:href="#ah"/><use transform="matrix(0.05,0,0,0.05,88.95,0)" xlink:href="#ab"/><use transform="matrix(0.05,0,0,0.05,98.95,0)" xlink:href="#Y"/><use transform="matrix(0.05,0,0,0.05,103.95,0)" xlink:href="#aj"/><use transform="matrix(0.05,0,0,0.05,113.95,0)" xlink:href="#ag"/><use transform="matrix(0.05,0,0,0.05,117.9,0)" xlink:href="#ar"/><use transform="matrix(0.05,0,0,0.05,121.85000000000001,0)" xlink:href="#X"/></g><path fill="#3a414a" d="M141 0L90-78 38 0H4l68-98-65-92h35l48 74 47-74h35l-64 92 68 98h-35" id="av"/><path fill="#3a414a" d="M110-160c48 1 74 30 74 79 0 53-28 85-80 85-65 0-83-55-86-122-5-90 50-162 133-122 14 7 22 21 27 39l-31 6c-5-40-67-38-82-6-9 19-15 44-15 74 11-20 30-34 60-33zm-7 138c34 0 49-23 49-58s-16-56-50-56c-29 0-50 16-49 49 1 36 15 65 50 65" id="aw"/><g id="m"><use transform="matrix(0.05,0,0,0.05,0,0)" xlink:href="#Y"/><use transform="matrix(0.05,0,0,0.05,5,0)" xlink:href="#ab"/><use transform="matrix(0.05,0,0,0.05,15,0)" xlink:href="#av"/><use transform="matrix(0.05,0,0,0.05,24,0)" xlink:href="#Y"/><use transform="matrix(0.05,0,0,0.05,29,0)" xlink:href="#am"/><use transform="matrix(0.05,0,0,0.05,34.95,0)" xlink:href="#aw"/><use transform="matrix(0.05,0,0,0.05,44.95,0)" xlink:href="#an"/><use transform="matrix(0.05,0,0,0.05,54.95,0)" xlink:href="#an"/><use transform="matrix(0.05,0,0,0.05,64.95,0)" xlink:href="#at"/><use transform="matrix(0.05,0,0,0.05,74.95,0)" xlink:href="#an"/><use transform="matrix(0.05,0,0,0.05,84.95,0)" xlink:href="#ap"/></g><path fill="#3a414a" d="M101-234c-31-9-42 10-38 44h38v23H63V0H32v-167H5v-23h27c-7-52 17-82 69-68v24" id="ax"/><path fill="#3a414a" d="M115-194c53 0 69 39 70 98 0 66-23 100-70 100C84 3 66-7 56-30L54 0H23l1-261h32v101c10-23 28-34 59-34zm-8 174c40 0 45-34 45-75 0-40-5-75-45-74-42 0-51 32-51 76 0 43 10 73 51 73" id="ay"/><path fill="#3a414a" d="M143 0L79-87 56-68V0H24v-261h32v163l83-92h37l-77 82L181 0h-38" id="az"/><g id="n"><use transform="matrix(0.05,0,0,0.05,0,0)" xlink:href="#ax"/><use transform="matrix(0.05,0,0,0.05,5,0)" xlink:href="#ab"/><use transform="matrix(0.05,0,0,0.05,15,0)" xlink:href="#ab"/><use transform="matrix(0.05,0,0,0.05,25,0)" xlink:href="#ah"/><use transform="matrix(0.05,0,0,0.05,35,0)" xlink:href="#ay"/><use transform="matrix(0.05,0,0,0.05,45,0)" xlink:href="#aj"/><use transform="matrix(0.05,0,0,0.05,55,0)" xlink:href="#V"/><use transform="matrix(0.05,0,0,0.05,64,0)" xlink:href="#az"/></g><g id="o"><use transform="matrix(0.05,0,0,0.05,0,0)" xlink:href="#ax"/><use transform="matrix(0.05,0,0,0.05,5,0)" xlink:href="#ab"/><use transform="matrix(0.05,0,0,0.05,15,0)" xlink:href="#ab"/><use transform="matrix(0.05,0,0,0.05,25,0)" xlink:href="#ah"/><use transform="matrix(0.05,0,0,0.05,35,0)" xlink:href="#ay"/><use transform="matrix(0.05,0,0,0.05,45,0)" xlink:href="#aj"/><use transform="matrix(0.05,0,0,0.05,55,0)" xlink:href="#V"/><use transform="matrix(0.05,0,0,0.05,64,0)" xlink:href="#az"/><use transform="matrix(0.05,0,0,0.05,73,0)" xlink:href="#af"/><use transform="matrix(0.05,0,0,0.05,83,0)" xlink:href="#ag"/><use transform="matrix(0.05,0,0,0.05,86.95,0)" xlink:href="#ah"/></g><path fill="#3a414a" d="M63-220v92h138v28H63V0H30v-248h175v28H63" id="aA"/><g id="p"><use transform="matrix(0.05,0,0,0.05,0,0)" xlink:href="#aA"/><use transform="matrix(0.05,0,0,0.05,10.950000000000001,0)" xlink:href="#ae"/></g><g id="q"><use transform="matrix(0.05,0,0,0.05,0,0)" xlink:href="#aa"/><use transform="matrix(0.05,0,0,0.05,14.950000000000001,0)" xlink:href="#aj"/><use transform="matrix(0.05,0,0,0.05,24.950000000000003,0)" xlink:href="#ag"/><use transform="matrix(0.05,0,0,0.05,28.900000000000002,0)" xlink:href="#ai"/><use transform="matrix(0.05,0,0,0.05,38.900000000000006,0)" xlink:href="#Y"/><use transform="matrix(0.05,0,0,0.05,43.900000000000006,0)" xlink:href="#ab"/><use transform="matrix(0.05,0,0,0.05,53.900000000000006,0)" xlink:href="#ai"/><use transform="matrix(0.05,0,0,0.05,63.900000000000006,0)" xlink:href="#aj"/><use transform="matrix(0.05,0,0,0.05,73.9,0)" xlink:href="#ai"/><use transform="matrix(0.05,0,0,0.05,83.9,0)" xlink:href="#V"/><use transform="matrix(0.05,0,0,0.05,92.9,0)" xlink:href="#ab"/></g><g id="r"><use transform="matrix(0.05,0,0,0.05,0,0)" xlink:href="#aa"/><use transform="matrix(0.05,0,0,0.05,14.950000000000001,0)" xlink:href="#aj"/><use transform="matrix(0.05,0,0,0.05,24.950000000000003,0)" xlink:href="#ag"/><use transform="matrix(0.05,0,0,0.05,28.900000000000002,0)" xlink:href="#ai"/><use transform="matrix(0.05,0,0,0.05,38.900000000000006,0)" xlink:href="#Y"/><use transform="matrix(0.05,0,0,0.05,43.900000000000006,0)" xlink:href="#ab"/><use transform="matrix(0.05,0,0,0.05,53.900000000000006,0)" xlink:href="#ai"/><use transform="matrix(0.05,0,0,0.05,63.900000000000006,0)" xlink:href="#aj"/><use transform="matrix(0.05,0,0,0.05,73.9,0)" xlink:href="#ai"/><use transform="matrix(0.05,0,0,0.05,83.9,0)" xlink:href="#V"/><use transform="matrix(0.05,0,0,0.05,92.9,0)" xlink:href="#ab"/><use transform="matrix(0.05,0,0,0.05,102.9,0)" xlink:href="#af"/><use transform="matrix(0.05,0,0,0.05,112.9,0)" xlink:href="#ag"/><use transform="matrix(0.05,0,0,0.05,116.85000000000001,0)" xlink:href="#ah"/></g><g id="s"><use transform="matrix(0.05,0,0,0.05,0,0)" xlink:href="#ak"/><use transform="matrix(0.05,0,0,0.05,9,0)" xlink:href="#ab"/><use transform="matrix(0.05,0,0,0.05,19,0)" xlink:href="#al"/><use transform="matrix(0.05,0,0,0.05,29,0)" xlink:href="#ag"/><use transform="matrix(0.05,0,0,0.05,32.95,0)" xlink:href="#V"/><use transform="matrix(0.05,0,0,0.05,41.95,0)" xlink:href="#ar"/><use transform="matrix(0.05,0,0,0.05,45.900000000000006,0)" xlink:href="#ab"/><use transform="matrix(0.05,0,0,0.05,55.900000000000006,0)" xlink:href="#af"/><use transform="matrix(0.05,0,0,0.05,65.9,0)" xlink:href="#ag"/><use transform="matrix(0.05,0,0,0.05,69.85000000000001,0)" xlink:href="#ah"/></g><path fill="#3a414a" d="M177-190C167-65 218 103 67 71c-23-6-38-20-44-43l32-5c15 47 100 32 89-28v-30C133-14 115 1 83 1 29 1 15-40 15-95c0-56 16-97 71-98 29-1 48 16 59 35 1-10 0-23 2-32h30zM94-22c36 0 50-32 50-73 0-42-14-75-50-75-39 0-46 34-46 75s6 73 46 73" id="aB"/><g id="t"><use transform="matrix(0.05,0,0,0.05,0,0)" xlink:href="#ar"/><use transform="matrix(0.05,0,0,0.05,3.95,0)" xlink:href="#Z"/><use transform="matrix(0.05,0,0,0.05,13.949999999999998,0)" xlink:href="#aB"/></g><path fill="#3a414a" d="M155-56V0h-30v-56H8v-25l114-167h33v167h35v25h-35zm-30-156c-27 46-58 90-88 131h88v-131" id="aC"/><path fill="#3a414a" d="M99-251c64 0 84 50 84 122C183-37 130 33 47-8c-14-7-20-23-25-40l30-5c6 39 69 39 84 7 9-19 16-44 16-74-10 22-31 35-62 35-49 0-73-33-73-83 0-54 28-83 82-83zm-1 141c31-1 51-18 51-49 0-36-14-67-51-67-34 0-49 23-49 58 0 34 15 58 49 58" id="aD"/><path fill="#3a414a" d="M64 0c3-98 48-159 88-221H18v-27h164v26C143-157 98-101 97 0H64" id="aE"/><g id="u"><use transform="matrix(0.05,0,0,0.05,0,0)" xlink:href="#ar"/><use transform="matrix(0.05,0,0,0.05,3.95,0)" xlink:href="#Z"/><use transform="matrix(0.05,0,0,0.05,13.949999999999998,0)" xlink:href="#ai"/><use transform="matrix(0.05,0,0,0.05,23.95,0)" xlink:href="#aB"/><use transform="matrix(0.05,0,0,0.05,33.95,0)" xlink:href="#Y"/><use transform="matrix(0.05,0,0,0.05,38.95,0)" xlink:href="#ab"/><use transform="matrix(0.05,0,0,0.05,48.95,0)" xlink:href="#av"/><use transform="matrix(0.05,0,0,0.05,57.95,0)" xlink:href="#Y"/><use transform="matrix(0.05,0,0,0.05,62.95,0)" xlink:href="#am"/><use transform="matrix(0.05,0,0,0.05,68.9,0)" xlink:href="#aC"/><use transform="matrix(0.05,0,0,0.05,78.9,0)" xlink:href="#aq"/><use transform="matrix(0.05,0,0,0.05,88.9,0)" xlink:href="#aD"/><use transform="matrix(0.05,0,0,0.05,98.9,0)" xlink:href="#aC"/><use transform="matrix(0.05,0,0,0.05,108.9,0)" xlink:href="#aD"/><use transform="matrix(0.05,0,0,0.05,118.9,0)" xlink:href="#aw"/><use transform="matrix(0.05,0,0,0.05,128.9,0)" xlink:href="#aE"/><use transform="matrix(0.05,0,0,0.05,138.9,0)" xlink:href="#aq"/><use transform="matrix(0.05,0,0,0.05,148.9,0)" xlink:href="#aD"/><use transform="matrix(0.05,0,0,0.05,158.9,0)" xlink:href="#an"/><use transform="matrix(0.05,0,0,0.05,168.9,0)" xlink:href="#ap"/></g><g id="v"><use transform="matrix(0.05,0,0,0.05,0,0)" xlink:href="#as"/><use transform="matrix(0.05,0,0,0.05,10,0)" xlink:href="#aj"/><use transform="matrix(0.05,0,0,0.05,20,0)" xlink:href="#au"/><use transform="matrix(0.05,0,0,0.05,29,0)" xlink:href="#aa"/><use transform="matrix(0.05,0,0,0.05,43.95,0)" xlink:href="#ab"/><use transform="matrix(0.05,0,0,0.05,53.95,0)" xlink:href="#ai"/><use transform="matrix(0.05,0,0,0.05,63.95,0)" xlink:href="#Y"/><use transform="matrix(0.05,0,0,0.05,68.95,0)" xlink:href="#X"/></g><g id="w"><use transform="matrix(0.05,0,0,0.05,0,0)" xlink:href="#as"/><use transform="matrix(0.05,0,0,0.05,10,0)" xlink:href="#aj"/><use transform="matrix(0.05,0,0,0.05,20,0)" xlink:href="#au"/><use transform="matrix(0.05,0,0,0.05,29,0)" xlink:href="#aa"/><use transform="matrix(0.05,0,0,0.05,43.95,0)" xlink:href="#ab"/><use transform="matrix(0.05,0,0,0.05,53.95,0)" xlink:href="#ai"/><use transform="matrix(0.05,0,0,0.05,63.95,0)" xlink:href="#Y"/><use transform="matrix(0.05,0,0,0.05,68.95,0)" xlink:href="#af"/><use transform="matrix(0.05,0,0,0.05,78.95,0)" xlink:href="#ag"/><use transform="matrix(0.05,0,0,0.05,82.9,0)" xlink:href="#ah"/></g><g id="x"><use transform="matrix(0.05,0,0,0.05,0,0)" xlink:href="#ac"/><use transform="matrix(0.05,0,0,0.05,5.95,0)" xlink:href="#ab"/><use transform="matrix(0.05,0,0,0.05,15.949999999999998,0)" xlink:href="#ai"/><use transform="matrix(0.05,0,0,0.05,25.950000000000003,0)" xlink:href="#Y"/><use transform="matrix(0.05,0,0,0.05,30.950000000000003,0)" xlink:href="#aj"/><use transform="matrix(0.05,0,0,0.05,40.95,0)" xlink:href="#ar"/><use transform="matrix(0.05,0,0,0.05,44.900000000000006,0)" xlink:href="#af"/><use transform="matrix(0.05,0,0,0.05,54.900000000000006,0)" xlink:href="#ag"/><use transform="matrix(0.05,0,0,0.05,58.85,0)" xlink:href="#ah"/></g><g id="y"><use transform="matrix(0.05,0,0,0.05,0,0)" xlink:href="#aj"/><use transform="matrix(0.05,0,0,0.05,10,0)" xlink:href="#aa"/><use transform="matrix(0.05,0,0,0.05,24.950000000000003,0)" xlink:href="#Z"/><use transform="matrix(0.05,0,0,0.05,34.95,0)" xlink:href="#W"/><use transform="matrix(0.05,0,0,0.05,44.95,0)" xlink:href="#ai"/><use transform="matrix(0.05,0,0,0.05,54.95,0)" xlink:href="#Y"/></g><g id="z"><use transform="matrix(0.05,0,0,0.05,0,0)" xlink:href="#ah"/><use transform="matrix(0.05,0,0,0.05,10,0)" xlink:href="#ab"/><use transform="matrix(0.05,0,0,0.05,20,0)" xlink:href="#V"/><use transform="matrix(0.05,0,0,0.05,29,0)" xlink:href="#ag"/><use transform="matrix(0.05,0,0,0.05,32.95,0)" xlink:href="#aa"/><use transform="matrix(0.05,0,0,0.05,47.900000000000006,0)" xlink:href="#aj"/><use transform="matrix(0.05,0,0,0.05,57.900000000000006,0)" xlink:href="#ar"/></g><g id="A"><use transform="matrix(0.05,0,0,0.05,0,0)" xlink:href="#aa"/><use transform="matrix(0.05,0,0,0.05,14.950000000000001,0)" xlink:href="#ab"/><use transform="matrix(0.05,0,0,0.05,24.950000000000003,0)" xlink:href="#Y"/><use transform="matrix(0.05,0,0,0.05,29.950000000000003,0)" xlink:href="#al"/><use transform="matrix(0.05,0,0,0.05,39.95,0)" xlink:href="#Z"/><use transform="matrix(0.05,0,0,0.05,49.95,0)" xlink:href="#ah"/></g><g id="B"><use transform="matrix(0.05,0,0,0.05,0,0)" xlink:href="#ak"/><use transform="matrix(0.05,0,0,0.05,9,0)" xlink:href="#aj"/><use transform="matrix(0.05,0,0,0.05,19,0)" xlink:href="#ac"/><use transform="matrix(0.05,0,0,0.05,24.95,0)" xlink:href="#V"/><use transform="matrix(0.05,0,0,0.05,33.95,0)" xlink:href="#al"/><use transform="matrix(0.05,0,0,0.05,43.95,0)" xlink:href="#aj"/><use transform="matrix(0.05,0,0,0.05,53.95,0)" xlink:href="#ac"/><use transform="matrix(0.05,0,0,0.05,59.900000000000006,0)" xlink:href="#am"/><use transform="matrix(0.05,0,0,0.05,65.85000000000001,0)" xlink:href="#aq"/><use transform="matrix(0.05,0,0,0.05,75.85000000000001,0)" xlink:href="#ao"/><use transform="matrix(0.05,0,0,0.05,85.85000000000001,0)" xlink:href="#ap"/></g><g id="C"><use transform="matrix(0.05,0,0,0.05,0,0)" xlink:href="#ah"/><use transform="matrix(0.05,0,0,0.05,10,0)" xlink:href="#aj"/><use transform="matrix(0.05,0,0,0.05,20,0)" xlink:href="#Y"/><use transform="matrix(0.05,0,0,0.05,25,0)" xlink:href="#ab"/><use transform="matrix(0.05,0,0,0.05,35,0)" xlink:href="#af"/><use transform="matrix(0.05,0,0,0.05,45,0)" xlink:href="#Y"/><use transform="matrix(0.05,0,0,0.05,50,0)" xlink:href="#ag"/><use transform="matrix(0.05,0,0,0.05,53.95,0)" xlink:href="#aa"/><use transform="matrix(0.05,0,0,0.05,68.9,0)" xlink:href="#ab"/></g><g id="D"><use transform="matrix(0.05,0,0,0.05,0,0)" xlink:href="#ah"/><use transform="matrix(0.05,0,0,0.05,10,0)" xlink:href="#aj"/><use transform="matrix(0.05,0,0,0.05,20,0)" xlink:href="#Y"/><use transform="matrix(0.05,0,0,0.05,25,0)" xlink:href="#ab"/><use transform="matrix(0.05,0,0,0.05,35,0)" xlink:href="#Y"/><use transform="matrix(0.05,0,0,0.05,40,0)" xlink:href="#ag"/><use transform="matrix(0.05,0,0,0.05,43.95,0)" xlink:href="#aa"/><use transform="matrix(0.05,0,0,0.05,58.900000000000006,0)" xlink:href="#ab"/></g><g id="E"><use transform="matrix(0.05,0,0,0.05,0,0)" xlink:href="#V"/><use transform="matrix(0.05,0,0,0.05,9,0)" xlink:href="#Z"/><use transform="matrix(0.05,0,0,0.05,19,0)" xlink:href="#ah"/><use transform="matrix(0.05,0,0,0.05,29,0)" xlink:href="#ah"/><use transform="matrix(0.05,0,0,0.05,39,0)" xlink:href="#af"/><use transform="matrix(0.05,0,0,0.05,49,0)" xlink:href="#Y"/><use transform="matrix(0.05,0,0,0.05,54,0)" xlink:href="#ab"/><use transform="matrix(0.05,0,0,0.05,64,0)" xlink:href="#X"/><use transform="matrix(0.05,0,0,0.05,73,0)" xlink:href="#Y"/></g><g id="F"><use transform="matrix(0.05,0,0,0.05,0,0)" xlink:href="#ac"/><use transform="matrix(0.05,0,0,0.05,5.95,0)" xlink:href="#ab"/><use transform="matrix(0.05,0,0,0.05,15.949999999999998,0)" xlink:href="#ai"/><use transform="matrix(0.05,0,0,0.05,25.950000000000003,0)" xlink:href="#Y"/><use transform="matrix(0.05,0,0,0.05,30.950000000000003,0)" xlink:href="#aj"/><use transform="matrix(0.05,0,0,0.05,40.95,0)" xlink:href="#ar"/><use transform="matrix(0.05,0,0,0.05,44.900000000000006,0)" xlink:href="#af"/><use transform="matrix(0.05,0,0,0.05,54.900000000000006,0)" xlink:href="#Y"/><use transform="matrix(0.05,0,0,0.05,59.900000000000006,0)" xlink:href="#au"/><use transform="matrix(0.05,0,0,0.05,68.9,0)" xlink:href="#as"/><use transform="matrix(0.05,0,0,0.05,78.9,0)" xlink:href="#ab"/><use transform="matrix(0.05,0,0,0.05,88.9,0)" xlink:href="#X"/></g><g id="G"><use transform="matrix(0.05,0,0,0.05,0,0)" xlink:href="#ac"/><use transform="matrix(0.05,0,0,0.05,5.95,0)" xlink:href="#ab"/><use transform="matrix(0.05,0,0,0.05,15.949999999999998,0)" xlink:href="#ai"/><use transform="matrix(0.05,0,0,0.05,25.950000000000003,0)" xlink:href="#Y"/><use transform="matrix(0.05,0,0,0.05,30.950000000000003,0)" xlink:href="#aj"/><use transform="matrix(0.05,0,0,0.05,40.95,0)" xlink:href="#ar"/><use transform="matrix(0.05,0,0,0.05,44.900000000000006,0)" xlink:href="#af"/><use transform="matrix(0.05,0,0,0.05,54.900000000000006,0)" xlink:href="#Y"/><use transform="matrix(0.05,0,0,0.05,59.900000000000006,0)" xlink:href="#au"/><use transform="matrix(0.05,0,0,0.05,68.9,0)" xlink:href="#as"/><use transform="matrix(0.05,0,0,0.05,78.9,0)" xlink:href="#ab"/><use transform="matrix(0.05,0,0,0.05,88.9,0)" xlink:href="#af"/><use transform="matrix(0.05,0,0,0.05,98.9,0)" xlink:href="#ag"/><use transform="matrix(0.05,0,0,0.05,102.85000000000001,0)" xlink:href="#ah"/></g><g id="H"><use transform="matrix(0.05,0,0,0.05,0,0)" xlink:href="#Y"/><use transform="matrix(0.05,0,0,0.05,5,0)" xlink:href="#au"/><use transform="matrix(0.05,0,0,0.05,14,0)" xlink:href="#as"/><use transform="matrix(0.05,0,0,0.05,24,0)" xlink:href="#ab"/></g><path fill="#3a414a" d="M27 0v-27h64v-190l-56 39v-29l58-41h29v221h61V0H27" id="aF"/><g id="I"><use transform="matrix(0.05,0,0,0.05,0,0)" xlink:href="#ak"/><use transform="matrix(0.05,0,0,0.05,9,0)" xlink:href="#aj"/><use transform="matrix(0.05,0,0,0.05,19,0)" xlink:href="#ac"/><use transform="matrix(0.05,0,0,0.05,24.95,0)" xlink:href="#V"/><use transform="matrix(0.05,0,0,0.05,33.95,0)" xlink:href="#al"/><use transform="matrix(0.05,0,0,0.05,43.95,0)" xlink:href="#aj"/><use transform="matrix(0.05,0,0,0.05,53.95,0)" xlink:href="#ac"/><use transform="matrix(0.05,0,0,0.05,59.900000000000006,0)" xlink:href="#am"/><use transform="matrix(0.05,0,0,0.05,65.85000000000001,0)" xlink:href="#aF"/><use transform="matrix(0.05,0,0,0.05,75.85000000000001,0)" xlink:href="#ao"/><use transform="matrix(0.05,0,0,0.05,85.85000000000001,0)" xlink:href="#ao"/><use transform="matrix(0.05,0,0,0.05,95.85000000000001,0)" xlink:href="#ap"/></g><g id="J"><use transform="matrix(0.05,0,0,0.05,0,0)" xlink:href="#ac"/><use transform="matrix(0.05,0,0,0.05,5.95,0)" xlink:href="#ab"/><use transform="matrix(0.05,0,0,0.05,15.949999999999998,0)" xlink:href="#ai"/><use transform="matrix(0.05,0,0,0.05,25.950000000000003,0)" xlink:href="#Y"/><use transform="matrix(0.05,0,0,0.05,30.950000000000003,0)" xlink:href="#aj"/><use transform="matrix(0.05,0,0,0.05,40.95,0)" xlink:href="#ar"/><use transform="matrix(0.05,0,0,0.05,44.900000000000006,0)" xlink:href="#X"/></g><g id="K"><use transform="matrix(0.05,0,0,0.05,0,0)" xlink:href="#ah"/><use transform="matrix(0.05,0,0,0.05,10,0)" xlink:href="#aj"/><use transform="matrix(0.05,0,0,0.05,20,0)" xlink:href="#Y"/><use transform="matrix(0.05,0,0,0.05,25,0)" xlink:href="#ab"/><use transform="matrix(0.05,0,0,0.05,35,0)" xlink:href="#af"/><use transform="matrix(0.05,0,0,0.05,45,0)" xlink:href="#Y"/><use transform="matrix(0.05,0,0,0.05,50,0)" xlink:href="#ag"/><use transform="matrix(0.05,0,0,0.05,53.95,0)" xlink:href="#aa"/><use transform="matrix(0.05,0,0,0.05,68.9,0)" xlink:href="#ab"/><use transform="matrix(0.05,0,0,0.05,78.9,0)" xlink:href="#af"/><use transform="matrix(0.05,0,0,0.05,88.9,0)" xlink:href="#ab"/><use transform="matrix(0.05,0,0,0.05,98.9,0)" xlink:href="#ai"/><use transform="matrix(0.05,0,0,0.05,108.9,0)" xlink:href="#ah"/></g><g id="L"><use transform="matrix(0.05,0,0,0.05,0,0)" xlink:href="#as"/><use transform="matrix(0.05,0,0,0.05,10,0)" xlink:href="#ag"/><use transform="matrix(0.05,0,0,0.05,13.949999999999998,0)" xlink:href="#V"/><use transform="matrix(0.05,0,0,0.05,22.95,0)" xlink:href="#az"/><use transform="matrix(0.05,0,0,0.05,31.950000000000003,0)" xlink:href="#W"/><use transform="matrix(0.05,0,0,0.05,41.95,0)" xlink:href="#as"/><use transform="matrix(0.05,0,0,0.05,51.95,0)" xlink:href="#af"/><use transform="matrix(0.05,0,0,0.05,61.95,0)" xlink:href="#ar"/><use transform="matrix(0.05,0,0,0.05,65.9,0)" xlink:href="#Z"/><use transform="matrix(0.05,0,0,0.05,75.9,0)" xlink:href="#V"/><use transform="matrix(0.05,0,0,0.05,84.9,0)" xlink:href="#aj"/><use transform="matrix(0.05,0,0,0.05,94.9,0)" xlink:href="#Y"/><use transform="matrix(0.05,0,0,0.05,99.9,0)" xlink:href="#ag"/><use transform="matrix(0.05,0,0,0.05,103.85000000000001,0)" xlink:href="#Z"/><use transform="matrix(0.05,0,0,0.05,113.85000000000001,0)" xlink:href="#ai"/></g><g id="M"><use transform="matrix(0.05,0,0,0.05,0,0)" xlink:href="#ah"/><use transform="matrix(0.05,0,0,0.05,10,0)" xlink:href="#ac"/><use transform="matrix(0.05,0,0,0.05,15.949999999999998,0)" xlink:href="#Z"/><use transform="matrix(0.05,0,0,0.05,25.950000000000003,0)" xlink:href="#as"/><use transform="matrix(0.05,0,0,0.05,35.95,0)" xlink:href="#Z"/><use transform="matrix(0.05,0,0,0.05,45.95,0)" xlink:href="#ax"/><use transform="matrix(0.05,0,0,0.05,50.6,0)" xlink:href="#ax"/><use transform="matrix(0.05,0,0,0.05,55.6,0)" xlink:href="#af"/><use transform="matrix(0.05,0,0,0.05,65.6,0)" xlink:href="#ar"/><use transform="matrix(0.05,0,0,0.05,69.55,0)" xlink:href="#Z"/><use transform="matrix(0.05,0,0,0.05,79.55,0)" xlink:href="#V"/><use transform="matrix(0.05,0,0,0.05,88.55,0)" xlink:href="#aj"/><use transform="matrix(0.05,0,0,0.05,98.55,0)" xlink:href="#Y"/><use transform="matrix(0.05,0,0,0.05,103.55000000000001,0)" xlink:href="#ag"/><use transform="matrix(0.05,0,0,0.05,107.5,0)" xlink:href="#Z"/><use transform="matrix(0.05,0,0,0.05,117.5,0)" xlink:href="#ai"/></g><g id="N"><use transform="matrix(0.05,0,0,0.05,0,0)" xlink:href="#V"/><use transform="matrix(0.05,0,0,0.05,9,0)" xlink:href="#al"/><use transform="matrix(0.05,0,0,0.05,19,0)" xlink:href="#ab"/><use transform="matrix(0.05,0,0,0.05,29,0)" xlink:href="#V"/><use transform="matrix(0.05,0,0,0.05,38,0)" xlink:href="#az"/><use transform="matrix(0.05,0,0,0.05,47,0)" xlink:href="#ar"/><use transform="matrix(0.05,0,0,0.05,50.95,0)" xlink:href="#ag"/><use transform="matrix(0.05,0,0,0.05,54.900000000000006,0)" xlink:href="#X"/><use transform="matrix(0.05,0,0,0.05,63.900000000000006,0)" xlink:href="#Y"/><use transform="matrix(0.05,0,0,0.05,68.9,0)" xlink:href="#af"/><use transform="matrix(0.05,0,0,0.05,78.9,0)" xlink:href="#as"/><use transform="matrix(0.05,0,0,0.05,88.9,0)" xlink:href="#ac"/><use transform="matrix(0.05,0,0,0.05,94.85000000000001,0)" xlink:href="#ab"/></g><g id="O"><use transform="matrix(0.05,0,0,0.05,0,0)" xlink:href="#V"/><use transform="matrix(0.05,0,0,0.05,9,0)" xlink:href="#al"/><use transform="matrix(0.05,0,0,0.05,19,0)" xlink:href="#ab"/><use transform="matrix(0.05,0,0,0.05,29,0)" xlink:href="#V"/><use transform="matrix(0.05,0,0,0.05,38,0)" xlink:href="#az"/><use transform="matrix(0.05,0,0,0.05,47,0)" xlink:href="#ar"/><use transform="matrix(0.05,0,0,0.05,50.95,0)" xlink:href="#ag"/><use transform="matrix(0.05,0,0,0.05,54.900000000000006,0)" xlink:href="#X"/><use transform="matrix(0.05,0,0,0.05,63.900000000000006,0)" xlink:href="#Y"/><use transform="matrix(0.05,0,0,0.05,68.9,0)" xlink:href="#af"/><use transform="matrix(0.05,0,0,0.05,78.9,0)" xlink:href="#as"/><use transform="matrix(0.05,0,0,0.05,88.9,0)" xlink:href="#Z"/><use transform="matrix(0.05,0,0,0.05,98.9,0)" xlink:href="#X"/><use transform="matrix(0.05,0,0,0.05,107.9,0)" xlink:href="#Y"/></g><g id="P"><use transform="matrix(0.05,0,0,0.05,0,0)" xlink:href="#ak"/><use transform="matrix(0.05,0,0,0.05,9,0)" xlink:href="#ab"/><use transform="matrix(0.05,0,0,0.05,19,0)" xlink:href="#al"/><use transform="matrix(0.05,0,0,0.05,29,0)" xlink:href="#ag"/><use transform="matrix(0.05,0,0,0.05,32.95,0)" xlink:href="#V"/><use transform="matrix(0.05,0,0,0.05,41.95,0)" xlink:href="#ar"/><use transform="matrix(0.05,0,0,0.05,45.900000000000006,0)" xlink:href="#ab"/><use transform="matrix(0.05,0,0,0.05,55.900000000000006,0)" xlink:href="#af"/><use transform="matrix(0.05,0,0,0.05,65.9,0)" xlink:href="#Y"/><use transform="matrix(0.05,0,0,0.05,70.9,0)" xlink:href="#au"/><use transform="matrix(0.05,0,0,0.05,79.9,0)" xlink:href="#as"/><use transform="matrix(0.05,0,0,0.05,89.9,0)" xlink:href="#ab"/><use transform="matrix(0.05,0,0,0.05,99.9,0)" xlink:href="#X"/></g><g id="Q"><use transform="matrix(0.05,0,0,0.05,0,0)" xlink:href="#ak"/><use transform="matrix(0.05,0,0,0.05,9,0)" xlink:href="#ab"/><use transform="matrix(0.05,0,0,0.05,19,0)" xlink:href="#al"/><use transform="matrix(0.05,0,0,0.05,29,0)" xlink:href="#ag"/><use transform="matrix(0.05,0,0,0.05,32.95,0)" xlink:href="#V"/><use transform="matrix(0.05,0,0,0.05,41.95,0)" xlink:href="#ar"/><use transform="matrix(0.05,0,0,0.05,45.900000000000006,0)" xlink:href="#ab"/><use transform="matrix(0.05,0,0,0.05,55.900000000000006,0)" xlink:href="#af"/><use transform="matrix(0.05,0,0,0.05,65.9,0)" xlink:href="#Y"/><use transform="matrix(0.05,0,0,0.05,70.9,0)" xlink:href="#au"/><use transform="matrix(0.05,0,0,0.05,79.9,0)" xlink:href="#as"/><use transform="matrix(0.05,0,0,0.05,89.9,0)" xlink:href="#ab"/><use transform="matrix(0.05,0,0,0.05,99.9,0)" xlink:href="#af"/><use transform="matrix(0.05,0,0,0.05,109.9,0)" xlink:href="#ag"/><use transform="matrix(0.05,0,0,0.05,113.85000000000001,0)" xlink:href="#ah"/></g><g id="R"><use transform="matrix(0.05,0,0,0.05,0,0)" xlink:href="#aa"/><use transform="matrix(0.05,0,0,0.05,14.950000000000001,0)" xlink:href="#Z"/><use transform="matrix(0.05,0,0,0.05,24.950000000000003,0)" xlink:href="#ah"/><use transform="matrix(0.05,0,0,0.05,34.95,0)" xlink:href="#ab"/><use transform="matrix(0.05,0,0,0.05,44.95,0)" xlink:href="#ar"/></g><g id="S"><use transform="matrix(0.05,0,0,0.05,0,0)" xlink:href="#ah"/><use transform="matrix(0.05,0,0,0.05,10,0)" xlink:href="#ab"/><use transform="matrix(0.05,0,0,0.05,20,0)" xlink:href="#X"/><use transform="matrix(0.05,0,0,0.05,29,0)" xlink:href="#V"/><use transform="matrix(0.05,0,0,0.05,38,0)" xlink:href="#ac"/><use transform="matrix(0.05,0,0,0.05,43.95,0)" xlink:href="#ag"/><use transform="matrix(0.05,0,0,0.05,47.900000000000006,0)" xlink:href="#as"/><use transform="matrix(0.05,0,0,0.05,57.900000000000006,0)" xlink:href="#Y"/><use transform="matrix(0.05,0,0,0.05,62.900000000000006,0)" xlink:href="#ag"/><use transform="matrix(0.05,0,0,0.05,66.85000000000001,0)" xlink:href="#Z"/><use transform="matrix(0.05,0,0,0.05,76.85000000000001,0)" xlink:href="#ai"/></g><g id="T"><use transform="matrix(0.05,0,0,0.05,0,0)" xlink:href="#V"/><use transform="matrix(0.05,0,0,0.05,9,0)" xlink:href="#Z"/><use transform="matrix(0.05,0,0,0.05,19,0)" xlink:href="#X"/><use transform="matrix(0.05,0,0,0.05,28,0)" xlink:href="#Y"/><use transform="matrix(0.05,0,0,0.05,33,0)" xlink:href="#af"/><use transform="matrix(0.05,0,0,0.05,43,0)" xlink:href="#as"/><use transform="matrix(0.05,0,0,0.05,53,0)" xlink:href="#ab"/><use transform="matrix(0.05,0,0,0.05,63,0)" xlink:href="#ac"/><use transform="matrix(0.05,0,0,0.05,68.95,0)" xlink:href="#af"/><use transform="matrix(0.05,0,0,0.05,78.95,0)" xlink:href="#ah"/><use transform="matrix(0.05,0,0,0.05,88.95,0)" xlink:href="#aj"/><use transform="matrix(0.05,0,0,0.05,98.95,0)" xlink:href="#au"/></g><g id="U"><use transform="matrix(0.05,0,0,0.05,0,0)" xlink:href="#ak"/><use transform="matrix(0.05,0,0,0.05,9,0)" xlink:href="#ab"/><use transform="matrix(0.05,0,0,0.05,19,0)" xlink:href="#al"/><use transform="matrix(0.05,0,0,0.05,29,0)" xlink:href="#ag"/><use transform="matrix(0.05,0,0,0.05,32.95,0)" xlink:href="#V"/><use transform="matrix(0.05,0,0,0.05,41.95,0)" xlink:href="#ar"/><use transform="matrix(0.05,0,0,0.05,45.900000000000006,0)" xlink:href="#ab"/><use transform="matrix(0.05,0,0,0.05,55.900000000000006,0)" xlink:href="#X"/></g></defs></g></svg>